PathFileType	4	(X/Y/Z)	D:\luciana\vassoio.trc
DataRate	CameraRate	NumFrames	NumMarkers	Units	OrigDataRate	OrigDataStartFrame	OrigNumFrames
250.00	250.00	7	20	mm	250.00	277	2051
Frame#	Time	pelvisR			Trunk1			Trunk2			Trunk3			C7			shoulder			upperArm1			upperArm2			upperArm3			elbow			forearm1			forearm2			forearm3			wrist1			wrist2			wrist3			Object1			Hand			Object2			Object3			
		X1	Y1	Z1	X2	Y2	Z2	X3	Y3	Z3	X4	Y4	Z4	X5	Y5	Z5	X6	Y6	Z6	X7	Y7	Z7	X8	Y8	Z8	X9	Y9	Z9	X10	Y10	Z10	X11	Y11	Z11	X12	Y12	Z12	X13	Y13	Z13	X14	Y14	Z14	X15	Y15	Z15	X16	Y16	Z16	X17	Y17	Z17	X18	Y18	Z18	X19	Y19	Z19	X20	Y20	Z20	

276	1.104000	1707.245469	666.562319	733.066797	1483.154178	866.971254	636.961102	1545.282841	814.011633	634.122849	1455.662847	775.758684	633.921981	1548.558354	1131.271839	815.391183	1722.077608	1054.254055	761.145175	1797.388792	878.632486	852.948427	1846.862078	888.823688	797.781467	1796.061397	888.808966	729.468167	1829.085350	753.953815	772.105217	1873.304963	698.877096	717.863023	1818.626761	658.558786	762.987196	1830.159068	749.692798	682.734132	1847.193122	671.084642	575.502276	1830.475450	602.858424	612.878919	1781.977892	707.991958	573.050261	1558.508158	578.706920	482.104927	1826.353431	602.200031	505.553901	1639.166832	551.885128	395.383865	1495.854139	552.360535	395.116866	
277	1.108000	1707.235336	666.562796	733.073592	1483.165741	866.972804	636.961162	1545.294404	813.997984	634.130657	1455.664635	775.754154	633.921921	1548.549175	1131.261706	815.382719	1722.079635	1054.246187	761.150837	1797.376156	878.619254	852.956176	1846.856475	888.805985	797.789693	1796.060681	888.797760	729.481220	1829.067230	753.939867	772.096574	1873.291969	698.860407	717.869520	1818.619490	658.545554	762.988269	1830.156088	749.695539	682.724893	1847.198725	671.081066	575.497866	1830.477953	602.878273	612.897396	1781.976461	707.984090	573.052526	1558.506846	578.695357	482.099205	1826.353788	602.205336	505.570054	1639.145136	551.866531	395.381093	1495.840549	552.338302	395.103842	
278	1.112000	1707.238913	666.562080	733.078659	1483.182907	866.986930	636.953235	1545.290947	813.992918	634.151518	1455.660105	775.750816	633.930206	1548.580647	1131.261826	815.377474	1722.083807	1054.238796	761.136949	1797.388077	878.609955	852.968633	1846.852660	888.792098	797.792017	1796.076655	888.802350	729.485989	1829.066873	753.935874	772.100568	1873.303413	698.858440	717.866778	1818.605304	658.536792	762.981534	1830.153584	749.686360	682.734609	1847.205043	671.075821	575.502872	1830.464482	602.866173	612.915277	1781.979799	707.982183	573.058009	1558.515072	578.709841	482.082009	1826.334715	602.202713	505.563438	1639.215708	551.909983	395.374238	1495.819092	552.341700	395.113766	
279	1.116000	1707.232237	666.552722	733.075321	1483.196497	867.002845	636.943460	1545.299292	813.999116	634.169281	1455.664515	775.762498	633.939326	1548.586249	1131.257176	815.373302	1722.088218	1054.227591	761.126101	1797.389150	878.606319	852.969587	1846.860409	888.784289	797.793627	1796.088219	888.801813	729.497731	1829.073191	753.928185	772.106946	1873.315811	698.855758	717.867732	1818.605423	658.535838	762.983501	1830.158234	749.678016	682.740688	1847.202539	671.077371	575.513065	1830.453753	602.835059	612.895370	1781.984806	707.982183	573.064744	1558.522224	578.713000	482.085079	1826.336145	602.206290	505.550504	1639.207244	551.920772	395.383537	1495.836973	552.359998	395.109832	
280	1.120000	1707.231998	666.557550	733.070970	1483.176231	866.988301	636.955917	1545.320749	814.002633	634.182870	1455.676436	775.771916	633.930743	1548.592687	1131.262302	815.387785	1722.117186	1054.213881	761.150599	1797.399163	878.602028	852.971852	1846.876860	888.779819	797.811627	1796.097398	888.791084	729.498327	1829.079747	753.921747	772.125721	1873.313069	698.841810	717.876673	1818.602443	658.521354	762.988091	1830.160618	749.681354	682.741821	1847.204685	671.079516	575.523555	1830.451488	602.812409	612.895131	1781.991720	707.983434	573.067069	1558.509111	578.701437	482.099086	1826.344609	602.210581	505.551338	1639.180779	551.917911	395.383656	1495.862484	552.364111	395.095557	
281	1.124000	1707.232237	666.573882	733.083725	1483.235598	867.022455	636.945963	1545.320630	813.987255	634.190321	1455.674648	775.763392	633.935928	1548.594117	1131.282210	815.386415	1722.127557	1054.219127	761.156678	1797.406554	878.598809	852.988541	1846.882463	888.769567	797.809303	1796.107650	888.791800	729.507267	1829.074740	753.910422	772.138655	1873.310566	698.836803	717.887878	1818.594933	658.512950	762.977898	1830.159307	749.676943	682.746232	1847.204089	671.078086	575.516820	1830.436826	602.807403	612.887681	1781.990528	707.992196	573.068798	1558.511496	578.704000	482.090592	1826.339722	602.208018	505.564928	1639.208436	551.932812	395.379364	1495.874047	552.360952	395.107627	
282	1.128000	1707.223773	666.572392	733.085036	1483.313084	867.064416	636.924386	1545.313358	813.980699	634.187579	1455.694437	775.767326	633.939505	1548.608184	1131.278753	815.382302	1722.124577	1054.225445	761.163175	1797.401071	878.586769	852.990985	1846.883535	888.765812	797.809601	1796.105862	888.783157	729.503036	1829.075336	753.904462	772.138298	1873.304129	698.832333	717.875600	1818.595052	658.506036	762.978375	1830.150962	749.665797	682.757974	1847.200155	671.068549	575.518668	1830.446005	602.809787	612.898529	1781.990170	707.989216	573.078036	1558.513761	578.721702	482.090861	1826.343060	602.211654	505.566418	1639.179349	551.920533	395.389110	1495.858908	552.355707	395.104825	
